<?xml version="1.0" standalone="no"?>
<!DOCTYPE svg PUBLIC "-//W3C//DTD SVG 20010904//EN"
 "http://www.w3.org/TR/2001/REC-SVG-20010904/DTD/svg10.dtd">
<svg version="1.0" xmlns="http://www.w3.org/2000/svg"
 width="500.000000pt" height="521.000000pt" viewBox="0 0 500.000000 521.000000"
 preserveAspectRatio="xMidYMid meet">
<metadata>
Created by potrace 1.16, written by Peter Selinger 2001-2019
</metadata>
<g transform="translate(0.000000,521.000000) scale(0.100000,-0.100000)"
fill="#000000" stroke="none">
<path d="M2463 5043 c-7 -3 -13 -11 -13 -19 0 -12 -10 -13 -49 -8 -60 8 -124
-2 -118 -19 2 -7 19 -14 38 -17 l34 -6 -30 -8 c-39 -10 -86 -39 -142 -88 -25
-21 -71 -52 -102 -67 -31 -16 -65 -39 -75 -50 -18 -19 -27 -21 -73 -15 -43 5
-57 3 -73 -11 -17 -16 -33 -58 -34 -95 -1 -10 -12 -15 -34 -16 -33 -1 -83 -34
-52 -34 8 0 22 -5 30 -10 12 -8 10 -15 -16 -42 -18 -18 -34 -40 -36 -48 -2 -8
-22 -24 -43 -35 -56 -30 -127 -149 -231 -393 -8 -18 -18 -61 -23 -95 -5 -34
-19 -105 -31 -157 -24 -105 -22 -174 7 -235 15 -31 15 -45 5 -121 -12 -89 -14
-95 -94 -210 -26 -37 -45 -70 -43 -72 2 -3 20 9 40 27 20 17 40 31 45 31 14 0
12 -57 -4 -120 -8 -30 -11 -59 -7 -63 13 -13 41 4 41 26 0 23 32 96 42 97 16
0 19 -42 3 -60 -14 -15 -14 -19 -2 -27 25 -15 35 -47 42 -142 5 -52 13 -114
19 -139 12 -46 35 -69 37 -35 0 16 1 16 8 -2 5 -11 4 -25 -1 -32 -19 -23 25
-123 54 -123 14 0 9 65 -8 89 -12 17 -13 26 -5 34 6 6 11 21 11 34 0 13 4 23
9 23 19 0 29 -55 30 -155 0 -16 -4 -32 -10 -36 -8 -5 -8 -9 0 -13 6 -4 15 -5
20 -2 4 3 8 -4 7 -16 0 -12 -6 -23 -12 -25 -15 -5 -74 45 -74 62 0 17 -23 25
-68 25 -42 0 -95 29 -112 59 -6 12 -15 21 -20 21 -21 0 -9 -50 23 -96 36 -55
82 -89 138 -104 27 -7 44 -20 54 -39 15 -30 124 -111 149 -111 27 0 46 -31 75
-126 23 -72 38 -102 64 -127 32 -30 34 -38 46 -137 27 -234 49 -292 184 -496
108 -163 239 -327 409 -511 151 -165 188 -214 188 -254 0 -33 26 -54 81 -63
20 -4 44 -15 53 -24 23 -26 58 -119 92 -239 15 -57 31 -103 36 -103 4 0 17 19
29 42 12 24 52 75 89 113 l68 70 4 100 c5 120 21 161 109 282 67 93 95 150
163 333 72 196 87 266 87 410 0 69 5 190 10 270 l11 145 74 150 c63 129 76
165 94 259 23 124 24 126 51 126 32 0 57 18 89 62 29 40 30 44 30 160 0 68 -4
118 -10 118 -14 0 -23 -66 -17 -125 6 -57 4 -61 -62 -136 -18 -22 -38 -39 -44
-39 -16 0 0 146 21 193 11 23 40 64 65 91 49 51 54 64 37 97 -16 29 -28 23
-37 -18 -7 -35 -8 -32 -14 36 -4 40 -15 93 -24 117 -17 44 -14 81 5 69 5 -3
10 -15 10 -26 0 -28 34 -24 50 6 13 25 40 34 40 14 0 -6 -9 -22 -20 -36 -23
-29 -26 -63 -7 -63 7 0 27 13 44 28 28 26 30 33 26 75 -4 31 -2 47 6 47 6 0
11 -12 11 -26 0 -16 5 -24 13 -21 7 2 12 23 12 55 0 27 3 54 8 58 4 4 7 -2 7
-12 0 -20 17 -44 32 -44 14 0 9 38 -7 54 -8 8 -15 26 -15 41 0 14 -14 58 -31
98 -56 130 -62 151 -70 247 -10 119 -25 224 -39 270 -13 44 -13 97 0 105 16
10 12 30 -12 61 -14 17 -23 42 -23 63 0 23 -6 37 -20 45 -29 16 -35 28 -23 43
7 9 7 17 -1 27 -7 8 -11 27 -9 43 2 23 -1 29 -19 31 -29 4 -30 18 -2 25 30 8
19 30 -21 40 -19 5 -47 20 -63 33 -16 13 -35 24 -43 24 -8 0 -59 44 -112 97
-107 106 -166 153 -193 153 -10 0 -29 11 -43 25 -14 14 -32 25 -41 25 -9 0
-30 12 -45 27 -22 20 -26 30 -18 40 14 17 28 16 28 -2 0 -19 30 -19 55 -1 19
14 19 15 1 35 -28 31 -72 27 -104 -9 -15 -16 -32 -30 -38 -30 -7 0 -52 14
-101 30 -62 22 -98 29 -122 25 -41 -8 -88 10 -97 37 -12 40 -194 103 -194 68
0 -5 6 -10 13 -10 19 0 121 -50 114 -56 -5 -6 -105 29 -172 60 -42 20 -58 24
-72 19z m729 -1160 c37 -91 68 -153 77 -154 6 -1 15 -2 20 -3 18 -3 63 -68 67
-99 10 -83 15 -112 19 -116 9 -9 -38 -33 -88 -47 -132 -34 -173 -48 -197 -66
-14 -10 -65 -49 -115 -86 -97 -74 -102 -82 -104 -179 -1 -73 6 -98 24 -83 9 8
14 3 18 -20 9 -43 29 -38 27 8 -4 75 1 78 52 28 42 -41 76 -52 200 -66 96 -10
164 -4 207 20 10 5 26 27 36 49 10 23 21 41 25 41 18 0 50 44 50 70 0 44 -46
67 -155 75 -135 10 -157 13 -167 23 -15 15 29 44 99 63 86 24 140 24 177 0 18
-12 39 -18 55 -15 67 14 116 -117 130 -344 5 -74 5 -146 0 -161 -18 -58 -27
-129 -22 -166 7 -56 -12 -150 -38 -187 -20 -27 -24 -29 -34 -14 -7 9 -20 16
-29 16 -11 0 -15 5 -10 13 5 9 4 9 -5 1 -13 -11 -74 -6 -66 6 2 4 -7 6 -20 4
-14 -1 -25 2 -25 7 0 6 -5 7 -11 3 -6 -3 -33 6 -60 20 -27 15 -53 25 -58 22
-12 -8 -41 -94 -41 -123 0 -41 -66 -74 -171 -85 -63 -6 -95 -6 -103 2 -15 15
-41 12 -67 -9 -23 -17 -32 -18 -111 -9 -48 6 -85 15 -82 20 3 4 1 8 -4 8 -5 0
-9 7 -9 15 0 8 4 12 8 10 3 -3 12 2 19 10 14 17 91 21 119 6 19 -11 31 -5 46
22 6 11 26 24 45 31 42 15 133 104 126 123 -4 9 -27 13 -78 13 -69 0 -75 -2
-100 -30 -21 -24 -34 -30 -68 -30 -41 0 -91 20 -119 47 -11 12 -36 14 -110 12
l-95 -4 -7 32 c-3 18 -12 40 -20 49 -12 15 -15 14 -31 -6 -10 -12 -18 -28 -18
-35 0 -23 51 -75 73 -75 46 0 60 -29 58 -119 -2 -93 -1 -91 -35 -91 -49 1
-119 20 -139 38 -10 9 -25 30 -33 47 -8 17 -27 45 -43 62 l-29 32 -118 -1
c-120 0 -198 16 -216 45 -13 20 -9 47 7 47 20 0 30 46 16 77 -16 34 -35 24
-42 -23 -3 -21 -7 -30 -8 -18 -1 22 -29 85 -41 94 -4 3 -10 68 -14 145 l-7
140 42 18 c40 17 42 17 78 -2 203 -109 252 -123 355 -101 65 13 93 38 76 69
-6 12 -19 21 -29 21 -10 0 -20 3 -24 6 -7 8 40 104 51 104 5 0 26 -8 47 -19
41 -20 41 -20 -27 -35 -17 -4 -28 -13 -28 -23 0 -13 7 -14 43 -9 120 20 134
19 146 -3 13 -24 66 -29 94 -8 15 10 16 23 10 92 l-6 80 -63 62 c-60 58 -141
106 -203 119 -14 3 -42 12 -61 19 -19 8 -61 17 -92 20 -32 4 -59 9 -59 13 -1
4 -3 25 -4 48 l-2 41 116 31 c132 36 199 42 253 23 29 -10 57 -10 120 -2 118
15 178 35 255 88 76 52 76 52 139 146 68 100 114 124 136 70z m-314 -23 c24 0
11 -18 -55 -77 -137 -122 -224 -136 -112 -18 35 36 68 74 73 83 5 9 16 25 24
35 15 16 16 16 37 -3 12 -11 27 -20 33 -20z m-50 -1619 c86 3 158 5 160 4 1
-1 0 -9 -3 -16 -10 -26 -95 -43 -216 -43 -100 0 -119 2 -141 20 -32 25 -26 43
12 35 17 -3 101 -3 188 0z m417 -28 c32 -16 35 -20 35 -62 0 -93 -55 -291 -81
-291 -4 0 -30 -21 -59 -47 -40 -36 -63 -48 -103 -55 -29 -6 -72 -13 -96 -18
-24 -4 -123 -3 -220 2 -201 10 -210 13 -330 106 -56 43 -77 66 -84 91 -6 24
-5 37 4 45 9 8 11 7 6 -6 -8 -23 14 -40 30 -23 7 8 9 16 4 19 -5 3 -11 14 -14
25 -3 14 -1 18 9 14 8 -3 14 -1 14 4 0 11 50 36 57 30 2 -3 5 -15 6 -26 1 -21
2 -21 15 -4 8 11 16 14 20 8 11 -16 63 -50 121 -79 45 -22 69 -27 131 -28 111
0 209 12 259 34 49 21 141 93 141 111 0 7 16 37 35 67 19 30 35 62 35 71 0 15
6 20 27 28 1 1 18 -7 38 -16z m-239 -42 c-3 -5 1 -11 9 -15 8 -3 15 -16 15
-28 0 -29 -74 -78 -129 -85 -50 -7 -207 15 -219 30 -5 7 -12 27 -14 44 -4 31
-3 32 21 25 50 -14 194 -5 256 16 33 11 61 21 63 21 2 1 1 -3 -2 -8z m435
-537 c-3 -123 -8 -163 -28 -227 -34 -109 -89 -236 -112 -261 -11 -12 -23 -41
-27 -66 -8 -52 -36 -114 -68 -150 -33 -36 -80 -126 -101 -190 -10 -30 -23 -62
-30 -70 -17 -21 -29 -119 -16 -134 8 -9 2 -24 -19 -53 -33 -45 -59 -60 -71
-41 -6 9 -10 8 -15 -5 -3 -9 -10 -14 -15 -11 -12 7 -11 71 1 79 13 8 13 82 0
90 -5 3 -15 -5 -22 -19 -6 -14 -14 -26 -17 -26 -3 0 -17 20 -30 44 -29 56 -49
74 -98 91 -33 10 -42 21 -69 76 -18 36 -66 103 -110 153 -44 48 -86 98 -94
110 -8 12 -32 39 -53 60 -20 20 -49 54 -62 74 -14 20 -53 69 -86 107 -33 39
-85 107 -115 151 -30 45 -61 87 -69 94 -8 7 -15 17 -15 22 0 7 4 7 13 0 6 -5
38 -10 69 -11 62 0 114 -18 158 -53 16 -13 57 -40 92 -61 35 -22 94 -58 131
-82 96 -59 175 -82 233 -67 54 15 126 61 117 75 -3 5 -1 7 4 4 12 -7 137 134
196 221 20 30 54 65 74 79 21 14 52 37 68 53 60 55 137 100 164 97 l26 -4 -4
-149z"/>
<path d="M0 1021 l0 -1021 1151 0 c1093 0 1151 1 1143 18 -26 59 -209 620
-295 902 -179 590 -181 600 -183 725 -1 100 2 116 27 172 32 73 32 73 12 73
-23 0 -109 -84 -172 -167 -30 -40 -105 -121 -167 -180 -108 -103 -119 -111
-242 -167 -248 -114 -306 -137 -477 -186 -186 -53 -432 -135 -512 -170 -82
-36 -187 -70 -216 -70 -15 0 -29 7 -33 15 -3 8 -1 142 5 297 6 156 12 393 12
528 l2 245 -27 3 -28 3 0 -1020z"/>
<path d="M3500 1801 c0 -5 13 -51 29 -102 69 -225 70 -231 90 -549 49 -750 48
-740 14 -1097 l-5 -53 686 0 686 0 0 435 0 434 -82 3 -82 3 -29 50 c-33 57
-97 127 -143 155 -44 28 -215 88 -298 106 -43 9 -101 32 -155 62 -47 27 -142
76 -211 109 -100 49 -143 77 -214 139 -48 43 -106 104 -127 136 -80 117 -159
201 -159 169z"/>
<path d="M2300 823 c-126 -132 -159 -178 -142 -195 9 -9 53 40 88 98 11 17 19
12 91 -56 126 -120 253 -230 265 -230 22 0 -29 59 -158 185 -74 72 -134 137
-134 146 0 29 29 30 53 2 74 -90 191 -174 218 -158 13 9 -8 35 -27 35 -8 0
-24 11 -36 25 -12 14 -27 25 -33 25 -6 0 -22 12 -35 26 -14 14 -37 37 -52 52
-35 33 -35 49 -1 84 32 33 47 35 91 8 17 -11 32 -16 32 -12 -1 12 -77 92 -88
92 -6 0 -65 -57 -132 -127z"/>
<path d="M3330 926 c0 -14 11 -38 25 -54 29 -35 30 -44 9 -77 -10 -16 -14 -34
-10 -50 8 -32 23 -32 38 0 6 14 14 25 18 25 15 0 42 -40 65 -100 17 -44 39
-77 75 -111 91 -87 95 -55 12 75 -32 50 -78 126 -103 169 -73 130 -129 183
-129 123z"/>
</g>
</svg>
