<?xml version="1.0" ?><svg enable-background="new 0 0 512 512" id="Layer_1" version="1.1" viewBox="0 0 512 512" xml:space="preserve" xmlns="http://www.w3.org/2000/svg" xmlns:xlink="http://www.w3.org/1999/xlink"><g><g><linearGradient gradientUnits="userSpaceOnUse" id="SVGID_1_" x1="-0.0000027" x2="512" y1="256" y2="256"><stop offset="0" style="stop-color:#33B49D"/><stop offset="1" style="stop-color:#00A185"/></linearGradient><circle cx="256" cy="256" fill="url(#SVGID_1_)" r="256"/><linearGradient gradientUnits="userSpaceOnUse" id="SVGID_2_" x1="42.6666641" x2="469.3333435" y1="256.0005188" y2="256.0005188"><stop offset="0" style="stop-color:#00A185"/><stop offset="1" style="stop-color:#33B49D"/></linearGradient><path d="M256,469.3338623c-117.6314697,0-213.3333435-95.7018738-213.3333435-213.3333435    c0-117.6309204,95.7018661-213.333313,213.3333435-213.333313c117.636261,0,213.3333435,95.7024002,213.3333435,213.333313    C469.3333435,373.6319885,373.636261,469.3338623,256,469.3338623z" fill="url(#SVGID_2_)"/></g><path d="M315.9525452,144.0016022H212.6996765c-8.5149231,0-16.3203125,5.7567902-17.9242706,14.1199951   c-2.158493,11.2533417,6.407959,21.0944061,17.2722778,21.0944061h6.5904541v56.5738678h34.0205231v10h-34.0205231v23.6277313   h34.0205231v10h-34.0205231v23.6277161h34.0205231v9.9994812h-34.0205231v25.5920105   c0,25.0522461,20.3091888,45.3616028,45.3618622,45.3616028c25.0527039,0,45.3616028-20.3093567,45.3616028-45.3616028V179.2160034   h5.5941162c9.5338745,0,18.0800171-7.13974,18.5786743-16.6602783   C334.0671997,152.4026642,325.9914551,144.0016022,315.9525452,144.0016022z" opacity="0.3"/><path d="M307.9525452,136.0016022H204.6996765c-8.5149231,0-16.3203125,5.7567902-17.9242096,14.1199951   c-2.1584015,11.2533417,6.4078979,21.0944061,17.2722168,21.0944061h6.5904541v56.5738678h34.0205231v10h-34.0205231v23.6277313   h34.0205231v10h-34.0205231v23.6277161h34.0205231v9.9994812h-34.0205231v25.5920105   c0,25.0522461,20.3092194,45.3616028,45.3618622,45.3616028c25.0527039,0,45.3616028-20.3093567,45.3616028-45.3616028V171.2160034   h5.5941162c9.5338745,0,18.0800171-7.13974,18.5786743-16.6602783   C326.0671997,144.4026642,317.9914551,136.0016022,307.9525452,136.0016022z" fill="#FFFFFF"/></g></svg>